<svg id="visual" viewBox="0 0 900 600" width="900" height="600" xmlns="http://www.w3.org/2000/svg" xmlns:xlink="http://www.w3.org/1999/xlink" version="1.1"><rect x="0" y="0" width="900" height="600" fill="#fff"></rect><path d="M0 442L21.5 436.3C43 430.7 86 419.3 128.8 425.2C171.7 431 214.3 454 257.2 463.5C300 473 343 469 385.8 461.3C428.7 453.7 471.3 442.3 514.2 434.2C557 426 600 421 642.8 425.8C685.7 430.7 728.3 445.3 771.2 455.2C814 465 857 470 878.5 472.5L900 475L900 601L878.5 601C857 601 814 601 771.2 601C728.3 601 685.7 601 642.8 601C600 601 557 601 514.2 601C471.3 601 428.7 601 385.8 601C343 601 300 601 257.2 601C214.3 601 171.7 601 128.8 601C86 601 43 601 21.5 601L0 601Z" fill="#fbf9f6"></path><path d="M0 469L21.5 468.2C43 467.3 86 465.7 128.8 463.5C171.7 461.3 214.3 458.7 257.2 463.8C300 469 343 482 385.8 488.5C428.7 495 471.3 495 514.2 488C557 481 600 467 642.8 466.5C685.7 466 728.3 479 771.2 478.8C814 478.7 857 465.3 878.5 458.7L900 452L900 601L878.5 601C857 601 814 601 771.2 601C728.3 601 685.7 601 642.8 601C600 601 557 601 514.2 601C471.3 601 428.7 601 385.8 601C343 601 300 601 257.2 601C214.3 601 171.7 601 128.8 601C86 601 43 601 21.5 601L0 601Z" fill="#faf8f4"></path><path d="M0 503L21.5 502.7C43 502.3 86 501.7 128.8 504.8C171.7 508 214.3 515 257.2 513.3C300 511.7 343 501.3 385.8 496.5C428.7 491.7 471.3 492.3 514.2 491.7C557 491 600 489 642.8 490C685.7 491 728.3 495 771.2 498.2C814 501.3 857 503.7 878.5 504.8L900 506L900 601L878.5 601C857 601 814 601 771.2 601C728.3 601 685.7 601 642.8 601C600 601 557 601 514.2 601C471.3 601 428.7 601 385.8 601C343 601 300 601 257.2 601C214.3 601 171.7 601 128.8 601C86 601 43 601 21.5 601L0 601Z" fill="#f9f6f2"></path><path d="M0 542L21.5 537C43 532 86 522 128.8 517.8C171.7 513.7 214.3 515.3 257.2 517.8C300 520.3 343 523.7 385.8 526.5C428.7 529.3 471.3 531.7 514.2 533C557 534.3 600 534.7 642.8 536.2C685.7 537.7 728.3 540.3 771.2 536.8C814 533.3 857 523.7 878.5 518.8L900 514L900 601L878.5 601C857 601 814 601 771.2 601C728.3 601 685.7 601 642.8 601C600 601 557 601 514.2 601C471.3 601 428.7 601 385.8 601C343 601 300 601 257.2 601C214.3 601 171.7 601 128.8 601C86 601 43 601 21.5 601L0 601Z" fill="#f4eee6"></path><path d="M0 564L21.5 564.5C43 565 86 566 128.8 564.7C171.7 563.3 214.3 559.7 257.2 560.2C300 560.7 343 565.3 385.8 562.8C428.7 560.3 471.3 550.7 514.2 548C557 545.3 600 549.7 642.8 551.8C685.7 554 728.3 554 771.2 556.7C814 559.3 857 564.7 878.5 567.3L900 570L900 601L878.5 601C857 601 814 601 771.2 601C728.3 601 685.7 601 642.8 601C600 601 557 601 514.2 601C471.3 601 428.7 601 385.8 601C343 601 300 601 257.2 601C214.3 601 171.7 601 128.8 601C86 601 43 601 21.5 601L0 601Z" fill="#efe6db"></path></svg>